<svg width="43" height="53" viewBox="0 0 43 53" fill="none" xmlns="http://www.w3.org/2000/svg">
<path d="M21.4999 53C21.9139 53 22.5866 52.8426 23.2334 52.4753C37.9549 44.1055 43 40.5634 43 30.9867V10.9149C43 8.15992 41.8356 7.29407 39.6364 6.34952C36.5836 5.06386 26.7262 1.4693 23.6732 0.393564C22.9747 0.157427 22.2244 0 21.4999 0C20.7755 0 20.0252 0.209901 19.3526 0.393564C16.2996 1.28565 6.41637 5.09011 3.36341 6.34952C1.19013 7.26785 0 8.15992 0 10.9149V30.9867C0 40.5634 5.07098 44.0792 19.7665 52.4753C20.4392 52.8426 21.086 53 21.4999 53ZM21.4999 48.2512C21.086 48.2512 20.672 48.0937 19.8959 47.6214C7.94283 40.2748 4.1137 38.1233 4.1137 30.016V11.7282C4.1137 10.8362 4.26895 10.4951 4.99338 10.2065C8.92597 8.6322 16.5583 6.03466 20.4651 4.46039C20.879 4.27676 21.2154 4.22426 21.4999 4.22426C21.7846 4.22426 22.1209 4.30298 22.5349 4.46039C26.4416 6.03466 34.0222 8.81586 38.0325 10.2065C38.7309 10.4688 38.8861 10.8362 38.8861 11.7282V30.016C38.8861 38.1233 35.057 40.2485 23.104 47.6214C22.3537 48.0937 21.9139 48.2512 21.4999 48.2512Z" fill="white"/>
</svg>
