<svg width="42" height="54" viewBox="0 0 42 54" fill="none" xmlns="http://www.w3.org/2000/svg">
<g clip-path="url(#clip0_1079_8)">
<path d="M0 46.1165C0 51.3804 2.57194 54 7.74077 54H34.2591C39.428 54 42 51.3554 42 46.1165V17.8824C42 15.389 41.5505 14.1548 40.1521 12.7192L29.5397 2.04011C28.0915 0.554103 26.6683 0 24.4209 0H7.74077C2.59689 0 0 2.66977 0 7.90856V46.1165ZM4.02022 46.0409V7.98413C4.02022 5.49066 5.34362 4.05503 7.94054 4.05503H24.2711C25.6943 4.05503 26.6432 4.43284 27.5422 5.38992L36.8311 14.86C37.7051 15.7416 37.9797 16.5475 37.9797 18.1847V46.0409C37.9797 48.5596 36.6562 49.9449 34.0594 49.9449H7.91556C5.34362 49.9449 4.02022 48.5596 4.02022 46.0409Z" fill="white"/>
<path d="M9 41.5525C9 43.6854 10.3306 45 12.4644 45H15.8787V32.698C15.8787 32.4498 15.7281 32.3259 15.477 32.3259H9V41.5525ZM9 29.5727H17.159C18.113 29.5727 18.6653 30.1432 18.6653 31.0608V45H23.4854V23H12.4644C10.3306 23 9 24.3145 9 26.4724V29.5727ZM26.2719 45H29.5105C31.6445 45 33 43.6854 33 41.5525V26.4724C33 24.3145 31.6445 23 29.5105 23H26.2719V45Z" fill="white"/>
</g>
<defs>
<clipPath id="clip0_1079_8">
<rect width="42" height="54" fill="white"/>
</clipPath>
</defs>
</svg>
