<svg width="628" height="87" viewBox="0 0 628 87" fill="none" xmlns="http://www.w3.org/2000/svg">
<path d="M657.636 691.738C659.191 693.371 660.291 694.538 661.402 695.693C667.444 701.969 672.653 708.817 676.58 716.601C679.585 722.553 682.82 728.393 685.942 734.289C686.595 735.521 687.378 736.617 688.517 737.489C693.065 740.981 696.663 745.373 699.998 749.922C709.068 762.293 715.719 775.88 720.389 790.422C723.624 800.493 726.188 810.724 727.861 821.158C729.094 828.863 729.856 836.619 730.347 844.41C731.128 856.803 730.855 869.187 730.144 881.553C729.625 890.592 728.731 899.618 727.721 908.619C726.648 918.189 725.346 927.738 723.956 937.269C721.621 953.267 719.401 969.306 714.905 984.893C712.267 994.038 709.131 1003.04 706.195 1012.1C704.249 1018.11 702.189 1024.08 699.547 1029.84C696.563 1036.34 693.002 1042.5 688.517 1048.12C685.681 1051.68 683.522 1053.78 679.488 1056.82C679.488 1059.13 679.53 1061.52 679.477 1063.91C679.406 1067.2 678.698 1067.87 675.321 1067.99C674.506 1068.01 673.69 1067.99 672.875 1067.99C471.29 1067.99 269.704 1067.99 68.1202 1067.99C66.6071 1067.99 65.0853 1068.04 63.5845 1067.89C61.6399 1067.71 60.8501 1066.93 60.7523 1065.05C60.6457 1063 60.5933 1060.92 60.7733 1058.87C60.8659 1057.81 61.5106 1056.8 61.9771 1055.59C61.259 1055.25 60.45 1054.86 59.6446 1054.47C56.1013 1052.74 52.4846 1051.15 49.0339 1049.26C41.4633 1045.11 36.1169 1038.89 32.2433 1031.34C29.4548 1025.9 27.2167 1020.25 25.1759 1014.51C22.1376 1005.96 18.9786 997.459 15.9577 988.906C10.9713 974.784 7.65508 960.269 5.55321 945.469C2.65986 925.086 1.80897 904.597 2.03436 884.04C2.14618 873.938 2.74372 863.864 3.72914 853.817C4.84909 842.4 6.64695 831.071 8.78028 819.795C10.6131 810.101 12.6713 800.457 15.362 790.952C18.9053 778.432 23.558 766.346 29.8357 754.892C32.7308 749.61 36.3003 744.805 40.4779 740.458C42.0713 738.801 43.988 737.45 45.7072 735.906C47.8545 733.977 50.1049 732.129 52.032 730C56.0628 725.551 59.9154 720.946 63.8326 716.398C64.2047 715.966 64.5088 715.475 64.9665 714.843C64.1069 713.912 63.2525 713.021 62.4383 712.095C61.5997 711.142 60.7802 710.171 59.9835 709.183C49.4148 696.061 41.8162 681.49 37.9654 665.118C35.5805 654.98 35.0004 644.691 35.8495 634.346C36.4628 626.891 38.2205 619.629 40.6456 612.549C44.3881 601.628 49.4148 591.326 56.2812 581.94C60.9375 575.574 66.4324 569.974 72.4061 564.827C80.569 557.793 89.1092 551.238 98.4235 545.735C102.114 543.554 105.977 541.663 109.724 539.575C113.369 537.545 117.064 535.576 120.564 533.32C126.447 529.527 131.531 524.829 135.979 519.447C139.14 515.623 142.434 511.908 145.655 508.132C146.328 507.344 147.016 506.554 147.57 505.687C148.584 504.096 148.4 503.031 146.973 501.742C146.461 501.279 145.876 500.894 145.301 500.503C144.438 499.918 143.561 499.354 142.68 498.793C137.531 495.512 134.346 490.816 132.908 485.04C131.355 478.804 131.425 472.557 133.45 466.373C134.515 463.119 136.334 460.388 138.841 458.072C139.605 457.366 140.391 456.679 141.205 456.03C143.328 454.342 144.034 452.155 143.487 449.586C143.106 447.796 142.685 446.003 142.105 444.268C139.628 436.866 137.061 429.493 134.569 422.095C129.534 407.147 125.902 391.879 123.964 376.235C122.779 366.667 122.081 357.055 121.764 347.425C121.261 332.057 121.268 316.679 121.874 301.319C122.444 286.882 123.286 272.449 124.331 258.037C125.346 244.055 125.776 230.096 124.728 216.101C124.326 210.727 124.195 205.333 123.987 199.945C123.274 181.488 122.75 163.026 123.132 144.555C123.412 131.02 124.24 117.51 125.989 104.075C127.652 91.3036 130.418 78.7682 135.025 66.6889C137.896 59.1649 141.399 51.9559 146.008 45.2545C157.045 29.2101 171.376 16.9828 189.096 8.6035C196.072 5.30445 203.405 3.07582 211.109 2.28419C216.571 1.72316 222.051 2.01228 227.466 2.97945C240.484 5.30273 252.428 10.2556 263.334 17.5782C268.827 21.2662 273.816 25.5961 278.493 30.2547C289.925 41.6422 299.768 54.2843 308.454 67.7782C313.936 76.2952 318.956 85.103 324.191 93.7765C327.344 98.9996 330.425 104.269 333.709 109.411C335.628 112.413 337.859 115.223 339.997 118.085C341.816 120.52 344.247 121.957 347.357 122.164C348.634 122.248 349.911 122.372 351.19 122.377C360.391 122.41 369.59 122.446 378.79 122.404C380.758 122.396 382.727 122.105 384.689 121.892C387.754 121.558 390.228 120.054 392.043 117.701C394.716 114.237 397.41 110.757 399.71 107.052C404.565 99.2268 409.213 91.2743 413.869 83.3304C420.512 71.9963 427.612 60.9633 435.691 50.5584C442.565 41.7076 449.885 33.2595 458.265 25.7304C471.222 14.0899 486.25 6.46609 503.453 3.14466C513.454 1.21376 523.374 1.77823 533.11 4.86733C545.6 8.83067 556.569 15.4305 566.514 23.7392C573.288 29.3977 579.298 35.7652 584.428 42.9433C588.672 48.8822 592.165 55.2102 594.995 61.8943C599.45 72.4145 602.487 83.3442 604.425 94.5699C606.338 105.66 607.482 116.834 608.099 128.066C609.226 148.59 608.999 169.113 608.223 189.638C607.924 197.548 607.627 205.456 607.292 213.363C607.133 217.144 606.867 220.922 606.687 224.703C606.175 235.378 606.672 246.025 607.502 256.671C608.197 265.589 608.838 274.515 609.275 283.451C609.745 293.072 609.941 302.708 610.274 312.338C610.715 325.072 610.435 337.802 610 350.528C609.088 377.309 604.299 403.375 595.154 428.643C593.201 434.04 591.396 439.49 589.593 444.937C589.09 446.455 588.752 448.038 588.49 449.616C588.109 451.904 588.749 453.938 590.419 455.612C591.071 456.266 591.731 456.915 592.418 457.531C596.959 461.599 599.131 466.749 599.683 472.688C600.113 477.307 599.826 481.821 598.358 486.262C596.915 490.632 594.576 494.365 590.826 497.161C589.806 497.922 588.74 498.624 587.692 499.347C587.024 499.808 586.326 500.228 585.688 500.723C583.104 502.728 582.955 504.3 585.253 506.731C586.278 507.815 587.468 508.762 588.656 509.679C591.705 512.033 594.319 514.785 596.603 517.855C598.678 520.645 600.438 523.6 601.551 526.904C601.804 527.656 602.157 528.377 602.517 529.245C603.46 529.276 604.376 529.384 605.277 529.326C614.688 528.718 624.1 528.147 633.502 527.431C638.139 527.076 642.758 526.462 647.378 525.911C648.644 525.76 649.895 525.453 651.136 525.145C655.542 524.049 658.845 521.559 661.053 517.609C663.036 514.061 664.338 510.276 665.321 506.373C667.037 499.57 668.04 492.64 668.727 485.682C669.944 473.357 671.052 461.019 672.055 448.675C672.742 440.217 673.198 431.739 673.715 423.267C674.335 413.077 674.926 402.888 675.499 392.694C675.794 387.427 676.07 382.157 676.271 376.884C677.09 355.448 677.826 334.007 677.178 312.552C676.787 299.584 675.771 286.662 673.006 273.951C671.714 268.019 669.978 262.178 668.407 256.306C666.244 248.213 664.133 240.109 662.989 231.795C661.96 224.309 662.605 216.933 664.31 209.601C666.302 201.035 670.778 193.688 675.929 186.696C677.837 184.106 679.993 181.708 682.412 179.512C688.867 173.653 696.434 169.751 704.553 166.726C716.645 162.22 729.216 161.188 742.001 161.661C755.653 162.167 768.729 165.203 781.241 170.538C788.546 173.653 795.328 177.635 801.036 183.212C803.614 185.732 805.843 188.54 807.667 191.602C810.999 197.193 813.057 203.263 814.008 209.684C815.447 219.406 815.264 229.115 813.824 238.823C812.577 247.235 810.534 255.475 808.275 263.66C804.657 276.773 802.607 290.093 801.994 303.675C801.423 316.309 801.964 328.901 802.712 341.498C803.227 350.199 803.806 358.897 804.403 367.595C804.961 375.719 805.618 383.835 806.164 391.96C806.718 400.2 807.27 408.441 807.684 416.69C808.883 440.525 809.528 464.374 809.173 488.24C808.941 503.842 808.359 519.43 807.035 534.981C805.808 549.394 803.778 563.7 800.093 577.722C797.582 587.275 794.312 596.575 790.057 605.543C785.35 615.466 779.577 624.74 772.781 633.36C766.344 641.524 759.128 648.997 751.055 655.66C745.682 660.093 740.035 664.138 734.07 667.715C729.604 670.393 724.972 672.849 720.236 675.028C710.623 679.451 700.602 682.806 690.312 685.377C680.487 687.832 670.542 689.657 660.52 691.105C659.741 691.217 658.976 691.435 657.629 691.73L657.636 691.738Z" stroke="white" stroke-width="3" stroke-miterlimit="10"/>
</svg>
