<svg width="430" height="582" viewBox="0 0 430 582" fill="none" xmlns="http://www.w3.org/2000/svg">
<path d="M16.9625 72.6007C68.2642 43.6359 122.014 19.184 177.995 4.2126C183.141 2.83617 177.24 8.54754 176.285 9.75078C166.413 22.1948 154.88 32.4752 143.737 43.3994C126.151 60.6402 109.121 78.531 91.1992 95.3408C82.2693 103.717 72.3513 111.683 64.2243 121.102C54.2214 132.694 88.7363 104.296 101.306 96.5156C144.706 69.6519 190.9 51.7398 237.592 33.8335C238.308 33.5588 251.166 26.2458 246.212 32.8265C236.682 45.4871 227.098 58.1333 216.711 69.9156C188.155 102.304 157.192 132.135 126.497 161.883C123.65 164.642 114.957 168.262 118.174 170.442C120.84 172.248 136.313 155.475 137.644 154.331C180.468 117.509 231.484 90.2179 281.064 67.2304C281.266 67.1368 301.804 56.5901 298.453 60.2657C285.403 74.5804 272.241 89.2232 258.473 102.641C199.954 159.677 134.5 208.057 69.4261 254.857C61.6084 260.48 50.9104 266.217 44.6062 274.325C43.3313 275.964 48.7087 275.291 50.4025 274.241C66.3857 264.332 80.6152 249.84 95.8808 238.578C130.227 213.241 166.221 191.391 202.814 170.526C225.653 157.503 248.687 144.885 271.404 131.591C277.386 128.09 279.279 127.003 284.259 123.451C286.229 122.047 280.91 127.11 279.281 128.989C261.955 148.973 246.673 171.063 229.269 191C198.08 226.73 163.46 258.502 128.429 289.261C105.937 309.01 82.5297 327.528 60.6574 348.167C55.1609 353.354 39.7246 368.955 46.5383 366.46C63.4312 360.273 78.2995 340.209 92.1653 328.7C131.149 296.34 174.886 272.169 217.974 247.725C228.877 241.539 396.023 152.631 394.909 149.8C393.602 146.48 351.709 182.055 351.288 182.441C310.162 220.122 271.209 260.652 229.789 297.988C164.282 357.036 93.4379 411.548 35.3173 480.244C31.7666 484.441 21.8898 497.134 26.4743 494.509C44.3349 484.283 59.1918 464.378 74.4792 450.288C136.05 393.538 207.705 354.271 278.686 315.106C280.393 314.164 300.009 302.085 298.304 302.855C280.863 310.733 265.066 329.746 251.042 342.965C219.732 372.477 188.134 401.221 154.735 427.715C116.464 458.075 76.3323 485.303 38.0668 515.655C28.775 523.025 23.5682 527.364 15.179 535.123C12.9652 537.17 6.18202 542.499 4.47821 546.199C0.782478 554.224 19.5118 539.553 26.177 534.535C56.0148 512.073 85.196 489.977 117.431 471.853C181.228 435.984 249.692 408.925 319.111 390.794C334.474 386.782 352.022 383.274 367.859 380.893C373.609 380.028 388.516 374.726 385.248 380.137C382.925 383.985 378.917 386.116 375.588 388.864C360.981 400.923 345.704 411.782 330.407 422.681C295.862 447.292 261.238 471.765 226.966 496.859C197.498 518.435 165.922 539.581 140.542 567.345C130.352 578.492 134.703 579.801 146.412 576.239C185.052 564.486 221.038 541.649 258.028 524.885C301.364 505.246 345.707 489.346 390.376 474.119C401.407 470.358 410.429 467.393 420.992 463.378C422.418 462.836 423.768 462.028 425.228 461.616C428.947 460.566 418.207 465.117 414.824 467.154C389.819 482.213 367.995 502.024 347.35 523.794C340.811 530.689 333.001 537.717 329.961 546.87" stroke="#3FA535" stroke-width="8" stroke-linecap="round"/>
</svg>
