<svg width="975" height="494" viewBox="0 0 975 494" fill="none" xmlns="http://www.w3.org/2000/svg">
<path d="M60.4 128.567H56.5C10.8 128.567 3.9 105.267 3.9 91.1672V88.2672C3.9 74.0672 10.1 51.3672 56.5 51.3672H60.4C105.6 51.3672 112.2 71.8672 112.2 81.4672V82.7672H82.7C82.1 80.7672 79.8 71.3672 58.2 71.3672C37.7 71.3672 33.3 80.4672 33.3 88.7672V89.9672C33.3 97.9672 38.3 108.467 58.3 108.467C80.2 108.467 82.4 97.9672 82.8 96.2672H112.2V97.8672C112.2 107.567 105.2 128.567 60.4 128.567Z" fill="white"/>
<path d="M110.428 107.367H120.228C124.528 99.1672 125.428 85.5672 125.428 52.7672H211.928V107.367H223.928V140.167H197.228V127.167H137.128V140.167H110.428V107.367ZM146.528 107.367H183.528V72.5672H151.028C151.028 87.4672 149.728 101.067 146.528 107.367Z" fill="white"/>
<path d="M226.181 52.7672H308.481V70.9672H254.181V80.2672H307.381V98.3672H254.181V108.567H309.281V127.167H226.181V52.7672Z" fill="white"/>
<path d="M381.004 127.167V71.8672H350.204C350.204 101.467 348.204 110.867 344.204 117.267C340.204 123.967 333.904 127.167 320.304 127.167H311.104V105.967H312.604C316.604 105.967 318.904 105.567 320.604 103.267C323.404 99.6672 324.404 91.4672 324.404 52.7672H409.404V127.167H381.004Z" fill="white"/>
<path d="M477.189 96.5672L464.689 70.9672L452.489 96.5672H477.189ZM492.089 127.167L486.289 115.167H443.789L438.089 127.167H409.289L446.089 52.7672H484.289L523.189 127.167H492.089Z" fill="white"/>
<path d="M522.448 127.167V52.7672H550.848V79.0672H597.348V52.7672H625.648V127.167H597.348V98.8672H550.848V127.167H522.448Z" fill="white"/>
<path d="M81.2 217.167V170.467L34.5 217.167H6.1V142.767H34.5V189.567L81.2 142.767H109.6V217.167H81.2Z" fill="white"/>
<path d="M216.4 193.467V194.467C216.4 207.167 206.1 218.267 167.8 218.267H163.1C130.7 218.267 113.5 208.567 113.5 190.267V188.767H142.9C143.2 195.967 150.2 199.867 166.2 199.867C181.1 199.867 186.7 197.367 186.7 193.267V192.967C186.7 188.867 181.4 187.167 170.6 187.167H148.7V170.167H170.6C180.6 170.167 185.2 168.867 185.2 165.367V165.067C185.2 161.467 179.4 159.567 165.7 159.567C152.6 159.567 143.4 162.067 143.1 169.567H113.7V167.967C113.7 153.867 128.6 141.767 162.6 141.767H167.1C203.9 141.767 214 150.767 214 160.867V161.767C214 169.267 207.7 175.467 195.7 176.667C209 177.967 216.4 184.667 216.4 193.467Z" fill="white"/>
<path d="M541.878 185.067H539.678C514.078 185.067 509.978 171.767 509.978 164.067V162.467C509.978 154.767 514.178 141.967 539.678 141.967H541.878C567.378 141.967 571.478 154.767 571.478 162.467V164.067C571.478 171.767 567.378 185.067 541.878 185.067ZM610.178 142.767H631.678L550.078 217.167H528.578L610.178 142.767ZM540.678 171.867C549.178 171.867 552.178 167.667 552.178 163.667V163.067C552.178 158.767 549.478 154.967 540.678 154.967C532.078 154.967 529.278 158.767 529.278 163.067V163.567C529.278 167.667 532.278 171.867 540.678 171.867ZM620.878 217.967H618.478C593.078 217.967 588.878 204.667 588.878 196.967V195.367C588.878 187.567 593.078 174.767 618.578 174.767H620.778C646.278 174.767 650.478 187.567 650.478 195.367V196.967C650.478 204.667 646.378 217.967 620.878 217.967ZM619.678 204.767C628.178 204.767 631.178 200.567 631.178 196.567V195.867C631.178 191.567 628.178 187.867 619.678 187.867C610.878 187.867 608.178 191.567 608.178 195.867V196.367C608.178 200.667 611.178 204.767 619.678 204.767Z" fill="white"/>
<path d="M6.1 307.167V232.767H105.9V307.167H77.6V252.567H34.5V307.167H6.1Z" fill="white"/>
<path d="M112.189 232.767H194.489V250.967H140.189V260.267H193.389V278.367H140.189V288.567H195.289V307.167H112.189V232.767Z" fill="white"/>
<path d="M261.912 283.867H228.312V307.167H199.912V232.767H261.912C289.412 232.767 297.212 243.667 297.212 257.367V258.967C297.212 272.467 289.112 283.867 261.912 283.867ZM228.312 251.367V265.267H258.512C265.012 265.267 267.912 262.567 267.912 258.467V258.167C267.912 253.867 265.212 251.367 258.512 251.367H228.312Z" fill="white"/>
<path d="M300.037 232.767H382.337V250.967H328.037V260.267H381.237V278.367H328.037V288.567H383.137V307.167H300.037V232.767Z" fill="white"/>
<path d="M449.759 283.867H416.159V307.167H387.759V232.767H449.759C477.259 232.767 485.059 243.667 485.059 257.367V258.967C485.059 272.467 476.959 283.867 449.759 283.867ZM416.159 251.367V265.267H446.359C452.859 265.267 455.759 262.567 455.759 258.467V258.167C455.759 253.867 453.059 251.367 446.359 251.367H416.159Z" fill="white"/>
<path d="M536.982 276.567L524.482 250.967L512.282 276.567H536.982ZM551.882 307.167L546.082 295.167H503.582L497.882 307.167H469.082L505.882 232.767H544.082L582.982 307.167H551.882Z" fill="white"/>
<path d="M582.241 307.167V232.767H673.741V250.267H610.641V259.167H643.241C673.341 259.167 680.841 269.067 680.841 282.167V283.067C680.841 296.367 673.341 307.167 643.241 307.167H582.241ZM610.641 289.167H640.141C649.041 289.167 651.441 286.067 651.441 282.567V282.267C651.441 278.667 649.041 275.967 640.141 275.967H610.641V289.167Z" fill="white"/>
<path d="M735.638 231.367H740.138C788.138 231.367 794.338 254.267 794.338 268.267V271.267C794.338 285.167 788.238 308.567 740.138 308.567H735.638C687.438 308.567 681.338 285.167 681.338 271.267V268.267C681.338 254.267 687.438 231.367 735.638 231.367ZM764.938 270.367V268.967C764.938 261.067 759.838 251.367 737.838 251.367C715.438 251.367 710.737 261.067 710.737 268.967V270.167C710.737 277.967 715.838 288.467 737.838 288.467C759.838 288.467 764.938 278.367 764.938 270.367Z" fill="white"/>
<path d="M796.33 268.167H829.33V286.767H796.33V268.167Z" fill="white"/>
<path d="M36.2 397.167V343.067H4.1V322.767H96.7V343.067H64.6V397.167H36.2Z" fill="white"/>
<path d="M146.834 366.567L134.334 340.967L122.134 366.567H146.834ZM161.734 397.167L155.934 385.167H113.434L107.734 397.167H78.9336L115.734 322.767H153.934L192.834 397.167H161.734Z" fill="white"/>
<path d="M192.092 397.167V322.767H220.492V349.067H266.992V322.767H295.292V397.167H266.992V368.867H220.492V397.167H192.092Z" fill="white"/>
<path d="M301.299 397.167V322.767H329.699V349.067H376.199V322.767H404.499V397.167H376.199V368.867H329.699V397.167H301.299Z" fill="white"/>
<path d="M462.606 321.367H467.106C515.106 321.367 521.306 344.267 521.306 358.267V361.267C521.306 375.167 515.206 398.567 467.106 398.567H462.606C414.406 398.567 408.306 375.167 408.306 361.267V358.267C408.306 344.267 414.406 321.367 462.606 321.367ZM491.906 360.367V358.967C491.906 351.067 486.806 341.367 464.806 341.367C442.406 341.367 437.706 351.067 437.706 358.967V360.167C437.706 367.967 442.806 378.467 464.806 378.467C486.806 378.467 491.906 368.367 491.906 360.367Z" fill="white"/>
<path d="M524.498 397.167V322.767H603.098V342.567H552.898V397.167H524.498Z" fill="white"/>
<path d="M658.266 321.367H662.766C710.766 321.367 716.966 344.267 716.966 358.267V361.267C716.966 375.167 710.866 398.567 662.766 398.567H658.266C610.066 398.567 603.966 375.167 603.966 361.267V358.267C603.966 344.267 610.066 321.367 658.266 321.367ZM687.566 360.367V358.967C687.566 351.067 682.466 341.367 660.466 341.367C638.066 341.367 633.366 351.067 633.366 358.967V360.167C633.366 367.967 638.466 378.467 660.466 378.467C682.466 378.467 687.566 368.367 687.566 360.367Z" fill="white"/>
<path d="M67.9 456.567L55.4 430.967L43.2 456.567H67.9ZM82.8 487.167L77 475.167H34.5L28.8 487.167H0L36.8 412.767H75L113.9 487.167H82.8Z" fill="white"/>
<path d="M180.559 487.167V431.867H149.759C149.759 461.467 147.759 470.867 143.759 477.267C139.759 483.967 133.459 487.167 119.859 487.167H110.659V465.967H112.159C116.159 465.967 118.459 465.567 120.159 463.267C122.959 459.667 123.959 451.467 123.959 412.767H208.959V487.167H180.559Z" fill="white"/>
<path d="M359.244 448.267V451.267C359.244 465.167 352.544 488.567 307.644 488.567H303.844C266.644 488.567 255.644 472.367 253.244 458.867H243.344V487.167H214.944V412.767H243.344V439.067H253.544C256.744 425.967 267.744 411.367 303.844 411.367H307.644C352.544 411.367 359.244 434.267 359.244 448.267ZM329.744 450.367V448.967C329.744 441.067 324.544 431.367 305.644 431.367C286.444 431.367 281.644 441.067 281.644 448.967V450.167C281.644 457.967 286.844 468.467 305.644 468.467C324.544 468.467 329.744 458.367 329.744 450.367Z" fill="white"/>
<path d="M363.025 487.167V412.767H402.025L424.825 454.567L448.025 412.767H485.425V487.167H457.325V440.767L431.225 487.167H416.725L390.725 440.767V487.167H363.025Z" fill="white"/>
<path d="M566.27 487.167V440.467L519.57 487.167H491.17V412.767H519.57V459.567L566.27 412.767H594.67V487.167H566.27Z" fill="white"/>
<path d="M600.67 487.167V412.767H629.07V439.067H675.57V412.767H703.87V487.167H675.57V458.867H629.07V487.167H600.67Z" fill="white"/>
<path d="M784.977 487.167V440.467L738.277 487.167H709.877V412.767H738.277V459.567L784.977 412.767H813.377V487.167H784.977Z" fill="white"/>
<path d="M888.377 463.267H875.277L849.877 487.167H814.877L843.177 461.667C825.077 459.267 817.577 450.167 817.577 438.767V437.167C817.577 424.667 825.677 412.767 851.377 412.767H916.777V487.167H888.377V463.267ZM888.377 445.467V431.367H855.977C849.477 431.367 846.977 434.567 846.977 438.267V438.467C846.977 442.367 849.577 445.467 856.077 445.467H888.377Z" fill="white"/>
<path d="M248.171 161.362C262.534 155.89 257.405 157.6 268.999 152.102C288.868 141.526 267.863 205.399 267.863 204.183" stroke="white" stroke-width="25" stroke-linecap="round"/>
<path d="M235.648 209.176H298.851" stroke="white" stroke-width="25" stroke-linecap="round"/>
<path d="M327.986 161.284C298.783 185.588 336.49 222.612 375.348 206.033C420.101 185.052 379.557 118.362 327.986 161.284Z" stroke="white" stroke-width="25" stroke-linecap="round"/>
<path d="M433.864 162.116C404.645 186.088 431.922 222.428 470.802 206.075C515.58 185.381 485.465 119.78 433.864 162.116Z" stroke="white" stroke-width="25" stroke-linecap="round"/>
<path d="M867.69 151.418C860.618 154.582 840.84 146.789 843.154 133.827C843.484 119.161 868.584 115.571 875.097 127.346C881.578 137.068 878.801 147.252 867.69 151.418Z" stroke="white" stroke-width="10" stroke-linecap="round"/>
<path d="M904.33 138.328C1014.5 122.021 959.23 51.8714 878.67 113.99C1006.66 4.10195 875.729 -12.5443 858.736 105.523C875.732 -12.5708 762.454 3.64681 838.965 110.631C774.98 0.179484 632.463 70.361 828.331 129.092C648.426 105.523 709.995 240.32 833.189 149.898C736.456 238.114 833.698 279.161 850.708 161.095C828.331 335.252 949.754 264.498 880.618 161.095C963.255 269.803 985.066 138.328 904.33 138.328Z" stroke="white" stroke-width="10" stroke-miterlimit="10"/>
<path d="M688.015 68.6624C709.329 127.45 702.428 197.072 690.207 212.172C678.204 202.857 649.304 139.823 641.473 101.503C635.938 74.4231 643.595 69.175 651.65 74.7666C656.712 78.2803 662.168 86.2621 667.031 100.271C667.262 100.937 669.93 110.01 669.638 108.181C666.944 91.3394 663.773 72.2958 664.638 59.4915C666.341 34.2761 676.843 37.8464 688.015 68.6624Z" stroke="white" stroke-width="10" stroke-linecap="round"/>
<path d="M898.484 297.175C927.961 327.596 867.439 382.107 822.472 400.096C792.193 400.236 742.638 371.093 741.42 347.777C740.56 331.301 766.308 323.089 787.009 322.516C800.016 322.156 811.625 324.814 818.008 332.187C818.312 332.538 830.966 347.318 831.149 346.159C832.836 335.482 824.421 313.752 834.351 303.959C853.906 284.675 883.032 281.228 898.484 297.175Z" stroke="white" stroke-width="10" stroke-linecap="round"/>
<path d="M891.602 180.168C937.102 242.168 952.102 362.232 952.102 488.168" stroke="white" stroke-width="10" stroke-linecap="square"/>
</svg>
