<svg width="959" height="494" viewBox="0 0 959 494" fill="none" xmlns="http://www.w3.org/2000/svg">
<path d="M61.789 438.31C65.7571 438.31 67.4577 435.034 67.4577 427.828V263.379H121.31V429.138C121.31 465.172 105.438 494 66.8908 494H57.8209C16.4393 494 0 468.448 0 423.897V68.1379C0 28.1724 15.3055 0 57.8209 0H66.8908C105.438 0 121.31 24.8965 121.31 62.2414V212.276H67.4577V64.2069C67.4577 57.6552 65.7571 54.3793 61.789 54.3793C57.8209 54.3793 56.1203 57.6552 56.1203 64.2069V427.828C56.1203 435.034 57.8209 438.31 61.789 438.31Z" fill="#E96FA8"/>
<path d="M150.013 490.724V61.5862H125.637V3.27586H229.375V61.5862H204.432V490.724H150.013Z" fill="#E96FA8"/>
<path d="M236.381 3.27586H328.781V61.5862H290.8V203.759H323.679V264.034H290.8V431.759H329.915V490.724H236.381V3.27586Z" fill="#E96FA8"/>
<path d="M406.305 490.724V62.2414H394.968C394.968 435.69 394.401 444.862 383.063 471.069C374.56 490.069 358.121 490.724 341.682 490.724H332.612V431.759H333.745C337.714 431.759 339.981 430.448 341.115 427.828C345.65 419.966 344.516 414.069 344.516 3.27586H461.291V490.724H406.305Z" fill="#E96FA8"/>
<path d="M531.783 438.31C535.751 438.31 537.451 435.034 537.451 427.828V263.379H591.304V429.138C591.304 465.172 575.432 494 536.885 494H527.815C486.433 494 469.994 468.448 469.994 423.897V68.1379C469.994 28.1724 485.299 0 527.815 0H536.885C575.432 0 591.304 24.8965 591.304 62.2414V212.276H537.451V64.2069C537.451 57.6552 535.751 54.3793 531.783 54.3793C527.815 54.3793 526.114 57.6552 526.114 64.2069V427.828C526.114 435.034 527.815 438.31 531.783 438.31Z" fill="#E96FA8"/>
<path d="M669.284 490.724L652.278 294.172L652.845 490.724H598.426V3.27586H652.845L652.278 187.379L670.418 3.27586H724.838L698.195 228L727.105 490.724H669.284Z" fill="#E96FA8"/>
<path d="M850.356 68.1379V423.897C850.356 468.448 833.916 494 792.535 494H783.465C744.917 494 729.045 465.172 729.045 429.138V276.483H782.898V427.828C782.898 435.034 784.598 438.31 788.567 438.31C792.535 438.31 794.235 435.034 794.235 427.828V261.414H758.522V202.448H794.235V64.2069C794.235 57.6552 792.535 54.3793 788.567 54.3793C784.598 54.3793 782.898 57.6552 782.898 64.2069V187.379H729.045V62.2414C729.045 24.8965 744.917 0 783.465 0H792.535C835.05 0 850.356 28.1724 850.356 68.1379Z" fill="#E96FA8"/>
<path d="M879.638 490.724V61.5862H855.263V3.27586H959V61.5862H934.058V490.724H879.638Z" fill="#E96FA8"/>
</svg>
