<svg width="131" height="90" viewBox="0 0 131 90" fill="none" xmlns="http://www.w3.org/2000/svg">
<path d="M28 10L28.6088 9.56199L27.2575 10.1061L28 10ZM61.7433 56.9009L61.1345 57.3389L62.3027 58.9627L62.49 56.9711L61.7433 56.9009ZM67 1L67.7096 0.757049L66.2533 0.929783L67 1ZM85.0877 53.8266L84.3781 54.0695L84.9786 55.8234L85.7665 54.1454L85.0877 53.8266ZM107.311 6.5L108.059 6.55104L106.632 6.18122L107.311 6.5ZM104.197 52.1541L103.449 52.103L103.335 53.7682L104.656 52.7474L104.197 52.1541ZM130 32.2081L130.656 32.5712L129.541 31.6147L130 32.2081ZM98.1375 88.7073C98.252 89.1054 98.6675 89.3353 99.0656 89.2208L105.553 87.3548C105.951 87.2403 106.181 86.8248 106.066 86.4267C105.951 86.0286 105.536 85.7988 105.138 85.9133L99.3717 87.5719L97.7131 81.8057C97.5986 81.4076 97.183 81.1778 96.785 81.2923C96.3869 81.4068 96.157 81.8223 96.2715 82.2204L98.1375 88.7073ZM35.5 62.5L35.6694 63.2306L36.3398 63.0752L36.2425 62.3939L35.5 62.5ZM27.3912 10.438L61.1345 57.3389L62.3521 56.4629L28.6088 9.56199L27.3912 10.438ZM62.49 56.9711L67.7467 1.07022L66.2533 0.929783L60.9966 56.8307L62.49 56.9711ZM66.2904 1.24295L84.3781 54.0695L85.7972 53.5836L67.7096 0.757049L66.2904 1.24295ZM85.7665 54.1454L107.99 6.81878L106.632 6.18122L84.4088 53.5078L85.7665 54.1454ZM106.563 6.44896L103.449 52.103L104.945 52.2051L108.059 6.55104L106.563 6.44896ZM104.656 52.7474L130.459 32.8015L129.541 31.6147L103.738 51.5607L104.656 52.7474ZM129.344 31.845L98.202 88.1369L99.5145 88.8631L130.656 32.5712L129.344 31.845ZM1.16942 71.2306L35.6694 63.2306L35.3306 61.7694L0.830582 69.7694L1.16942 71.2306ZM36.2425 62.3939L28.7425 9.89393L27.2575 10.1061L34.7575 62.6061L36.2425 62.3939Z" fill="#83C6D9"/>
</svg>
